<svg xmlns="http://www.w3.org/2000/svg" width="24" height="24" viewBox="0 0 24 24" fill="none">
<path d="M17.6123 7.43695C16.8838 7.43837 16.2914 6.84852 16.29 6.12003C16.2886 5.39153 16.8784 4.79919 17.6073 4.79777C18.3361 4.79634 18.9284 5.38654 18.9299 6.11503C18.9309 6.84353 18.3411 7.43552 17.6123 7.43695Z" fill="#A0864D"/>
<path fill-rule="evenodd" clip-rule="evenodd" d="M11.7605 17.6476C8.64166 17.6537 6.10801 15.1303 6.10196 12.0107C6.09589 8.89179 8.61991 6.35774 11.7388 6.35169C14.8584 6.34563 17.3924 8.87041 17.3984 11.989C17.4045 15.1086 14.8797 17.6415 11.7605 17.6476ZM11.7427 8.33366C9.71835 8.33722 8.07961 9.98203 8.08318 12.0068C8.08709 14.0319 9.73225 15.6703 11.7566 15.6663C13.7817 15.6624 15.4204 14.018 15.4165 11.9929C15.4126 9.96777 13.7674 8.32974 11.7427 8.33366Z" fill="#A0864D"/>
<path fill-rule="evenodd" clip-rule="evenodd" d="M4.52594 1.59261C5.22449 1.31889 6.02389 1.13142 7.19431 1.07617C8.3676 1.01987 8.74216 1.00703 11.7288 1.00133C14.7162 0.995631 15.0907 1.00703 16.264 1.05906C17.4348 1.10967 18.2345 1.29429 18.9345 1.56517C19.6587 1.84423 20.2732 2.21988 20.8855 2.82969C21.4978 3.44021 21.8748 4.05252 22.1574 4.77566C22.4308 5.47493 22.6183 6.27364 22.6739 7.44479C22.7295 8.61771 22.743 8.99193 22.7487 11.979C22.7544 14.9656 22.7423 15.3406 22.691 16.5146C22.64 17.6847 22.4558 18.4848 22.1849 19.1844C21.9051 19.9086 21.5302 20.5231 20.9204 21.1354C20.3106 21.748 19.6976 22.1248 18.9744 22.4077C18.2752 22.6808 17.4765 22.8682 16.3061 22.9242C15.1328 22.9798 14.7582 22.993 11.7705 22.9987C8.78421 23.0044 8.40965 22.993 7.23638 22.9413C6.06559 22.89 5.26547 22.7057 4.56585 22.4352C3.84166 22.1551 3.22722 21.7805 2.61492 21.1703C2.00227 20.5601 1.62485 19.9475 1.34259 19.2243C1.06887 18.5254 0.882098 17.7264 0.82615 16.5563C0.7702 15.3826 0.757017 15.0077 0.751319 12.021C0.745599 9.03399 0.757367 8.65977 0.808682 7.48648C0.860367 6.31534 1.04392 5.51556 1.31479 4.81522C1.59455 4.09136 1.96948 3.47728 2.58 2.86462C3.1898 2.25232 3.8028 1.87452 4.52594 1.59261ZM5.27974 20.5872C5.66786 20.7366 6.25021 20.9148 7.32263 20.9615C8.48306 21.0117 8.83054 21.0228 11.7669 21.017C14.7044 21.0117 15.0519 20.9992 16.212 20.9447C17.2833 20.8937 17.8657 20.7134 18.2527 20.5623C18.7663 20.3616 19.132 20.1218 19.5161 19.7372C19.9003 19.3512 20.1381 18.9845 20.3369 18.4709C20.4866 18.0824 20.6645 17.4997 20.7112 16.4273C20.7621 15.2675 20.7728 14.9197 20.7671 11.9825C20.7618 9.04611 20.7493 8.69826 20.6941 7.53816C20.6434 6.46644 20.4635 5.88408 20.312 5.49738C20.1113 4.98309 19.8722 4.61813 19.4866 4.23357C19.1009 3.849 18.7342 3.61199 18.2199 3.41312C17.8325 3.26308 17.2494 3.08558 16.1778 3.0389C15.0173 2.98793 14.6695 2.97759 11.7324 2.9833C8.79597 2.989 8.4485 3.00076 7.28841 3.05565C6.21636 3.10661 5.6347 3.28659 5.24694 3.43807C4.73372 3.63872 4.36805 3.87716 3.9835 4.26315C3.59965 4.64913 3.36193 5.01516 3.16307 5.52981C3.0141 5.91759 2.83482 6.50066 2.78885 7.57238C2.73823 8.73283 2.72755 9.08068 2.73325 12.0171C2.7386 14.9542 2.75107 15.3021 2.8056 16.4615C2.85585 17.5339 3.03725 18.1155 3.18802 18.5037C3.38867 19.0165 3.62782 19.3822 4.01309 19.7668C4.39907 20.1499 4.76581 20.3883 5.27974 20.5872Z" fill="#A0864D"/>
</svg>