<svg width="24" height="24" viewBox="0 0 24 24" fill="none" xmlns="http://www.w3.org/2000/svg">
<path d="M21 16.6238V7.37611C21 7.24303 20.9646 7.11235 20.8974 6.99747C20.8302 6.8826 20.7337 6.78767 20.6177 6.72243L12.3677 2.0818C12.2554 2.01865 12.1288 1.98548 12 1.98548C11.8712 1.98548 11.7446 2.01865 11.6323 2.0818L3.3823 6.72243C3.26632 6.78767 3.16978 6.8826 3.10259 6.99747C3.03541 7.11235 3 7.24303 3 7.37611V16.6238C3 16.7569 3.03541 16.8876 3.10259 17.0025C3.16978 17.1173 3.26632 17.2123 3.3823 17.2775L11.6323 21.9181C11.7446 21.9813 11.8712 22.0145 12 22.0145C12.1288 22.0145 12.2554 21.9813 12.3677 21.9181L20.6177 17.2775C20.7337 17.2123 20.8302 17.1173 20.8974 17.0025C20.9646 16.8876 21 16.7569 21 16.6238Z" stroke="#1D2026" stroke-width="1.5" stroke-linecap="round" stroke-linejoin="round"/>
<path d="M16.5958 14.2979V9.42291L7.5 4.40625" stroke="#1D2026" stroke-width="1.5" stroke-linecap="round" stroke-linejoin="round"/>
<path d="M20.8966 6.99628L12.089 12L3.10388 6.99534" stroke="#1D2026" stroke-width="1.5" stroke-linecap="round" stroke-linejoin="round"/>
<path d="M12.089 12L12.001 22.0145" stroke="#1D2026" stroke-width="1.5" stroke-linecap="round" stroke-linejoin="round"/>
</svg>
