<svg xmlns="http://www.w3.org/2000/svg" width="24" height="24" viewBox="0 0 24 24" fill="none">
<path d="M23 12C23 18.0766 18.0766 23 12 23C10.8645 23 9.77339 22.827 8.74436 22.5077C9.19234 21.7758 9.8621 20.5782 10.1105 19.6246C10.2435 19.1101 10.7935 17.0077 10.7935 17.0077C11.1528 17.6907 12.1996 18.2718 13.3129 18.2718C16.6306 18.2718 19.0214 15.2202 19.0214 11.4278C19.0214 7.79516 16.054 5.07621 12.2395 5.07621C7.49355 5.07621 4.96976 8.26089 4.96976 11.7339C4.96976 13.3484 5.83024 15.3577 7.20081 15.9964C7.40927 16.094 7.52016 16.0496 7.56895 15.85C7.60444 15.6992 7.79073 14.9496 7.875 14.6036C7.90161 14.4927 7.88831 14.3952 7.7996 14.2887C7.35161 13.7343 6.9879 12.723 6.9879 11.7782C6.9879 9.35202 8.82419 7.00564 11.9556 7.00564C14.6569 7.00564 16.5508 8.84637 16.5508 11.481C16.5508 14.4573 15.0472 16.5198 13.0911 16.5198C12.0133 16.5198 11.2016 15.6282 11.4633 14.5327C11.7738 13.2242 12.3726 11.8137 12.3726 10.869C12.3726 10.0262 11.9202 9.32097 10.9798 9.32097C9.8754 9.32097 8.98831 10.4609 8.98831 11.9911C8.98831 12.9669 9.31653 13.6234 9.31653 13.6234C9.31653 13.6234 8.22984 18.2274 8.03024 19.0879C7.80847 20.0371 7.89718 21.3766 7.99032 22.246C3.90081 20.6448 1 16.6617 1 12C1 5.92339 5.92339 1 12 1C18.0766 1 23 5.92339 23 12Z" fill="#A0864D"/>
</svg>