<svg width="24" height="24" viewBox="0 0 24 24" fill="none" xmlns="http://www.w3.org/2000/svg">
<path d="M19.5788 20.25H4.42135C4.23677 20.25 4.05868 20.1819 3.92115 20.0588C3.78363 19.9358 3.69632 19.7663 3.67593 19.5828L2.3426 7.58282C2.33095 7.47799 2.34155 7.37188 2.3737 7.27142C2.40584 7.17095 2.45882 7.0784 2.52917 6.99981C2.59951 6.92121 2.68565 6.85834 2.78194 6.81529C2.87824 6.77225 2.98253 6.75 3.08801 6.75H20.9121C21.0176 6.75 21.1219 6.77225 21.2182 6.81529C21.3145 6.85834 21.4006 6.92121 21.471 6.99981C21.5413 7.0784 21.5943 7.17095 21.6264 7.27142C21.6586 7.37188 21.6692 7.47799 21.6575 7.58282L20.3242 19.5828C20.3038 19.7663 20.2165 19.9358 20.079 20.0588C19.9414 20.1819 19.7634 20.25 19.5788 20.25Z" stroke="#1D2026" stroke-width="1.5" stroke-linecap="round" stroke-linejoin="round"/>
<path d="M8.25 9.75V6.75C8.25 5.75544 8.64509 4.80161 9.34835 4.09835C10.0516 3.39509 11.0054 3 12 3C12.9946 3 13.9484 3.39509 14.6517 4.09835C15.3549 4.80161 15.75 5.75544 15.75 6.75V9.75" stroke="#1D2026" stroke-width="1.5" stroke-linecap="round" stroke-linejoin="round"/>
</svg>
