<svg width="56" height="56" viewBox="0 0 56 56" fill="none" xmlns="http://www.w3.org/2000/svg">
<path d="M52.657 26.6404L47.25 29.3439L40.25 15.9385L45.712 13.2075C46.1224 13.0023 46.5969 12.9665 47.0334 13.1077C47.47 13.249 47.8335 13.556 48.0459 13.9627L53.4256 24.2652C53.5332 24.4712 53.5986 24.6965 53.6182 24.9281C53.6377 25.1597 53.6109 25.3928 53.5394 25.614C53.4678 25.8351 53.3529 26.0397 53.2014 26.216C53.0499 26.3922 52.8649 26.5365 52.657 26.6404V26.6404Z" stroke="#A0864D" stroke-width="3" stroke-linecap="round" stroke-linejoin="round"/>
<path d="M8.75009 29.1094L3.34311 26.4059C3.13524 26.302 2.95016 26.1577 2.79866 25.9815C2.64716 25.8052 2.53229 25.6006 2.46074 25.3795C2.38918 25.1584 2.36239 24.9252 2.38192 24.6936C2.40145 24.462 2.46691 24.2367 2.57449 24.0307L7.95419 13.7282C8.16655 13.3215 8.53014 13.0145 8.96665 12.8732C9.40317 12.732 9.8777 12.7678 10.2881 12.973L15.7501 15.704L8.75009 29.1094Z" stroke="#A0864D" stroke-width="3" stroke-linecap="round" stroke-linejoin="round"/>
<path d="M47.25 29.3438L43.75 33.4384L35.7006 41.4878C35.4869 41.7014 35.2216 41.8562 34.9303 41.9368C34.6391 42.0175 34.3319 42.0214 34.0387 41.9481L21.3607 38.7786C21.1229 38.7191 20.9002 38.6104 20.7071 38.4594L8.75 29.1094" stroke="#A0864D" stroke-width="3" stroke-linecap="round" stroke-linejoin="round"/>
<path d="M43.75 33.4385L34.125 26.4385L31.325 28.5385C30.1133 29.4472 28.6396 29.9385 27.125 29.9385C25.6104 29.9385 24.1366 29.4472 22.925 28.5385L21.7392 27.6491C21.5386 27.4987 21.3727 27.3069 21.2527 27.0868C21.1327 26.8666 21.0614 26.6233 21.0436 26.3732C21.0258 26.1231 21.062 25.8721 21.1497 25.6372C21.2373 25.4023 21.3745 25.189 21.5517 25.0117L30.1124 16.451C30.2749 16.2885 30.4678 16.1596 30.6801 16.0717C30.8925 15.9837 31.12 15.9385 31.3498 15.9385H40.25" stroke="#A0864D" stroke-width="3" stroke-linecap="round" stroke-linejoin="round"/>
<path d="M15.8756 15.704L27.1019 12.4311C27.5029 12.3142 27.9325 12.3446 28.3131 12.5168L35.875 15.9384" stroke="#A0864D" stroke-width="3" stroke-linecap="round" stroke-linejoin="round"/>
</svg>
