<svg width="56" height="56" viewBox="0 0 56 56" fill="none" xmlns="http://www.w3.org/2000/svg">
<path d="M19.25 35C25.5322 35 30.625 29.9072 30.625 23.625C30.625 17.3428 25.5322 12.25 19.25 12.25C12.9678 12.25 7.875 17.3428 7.875 23.625C7.875 29.9072 12.9678 35 19.25 35Z" stroke="#A0864D" stroke-width="3" stroke-miterlimit="10"/>
<path d="M33.9963 12.6738C35.5609 12.2329 37.2017 12.1325 38.8083 12.3793C40.415 12.626 41.9501 13.2142 43.3102 14.1041C44.6704 14.9941 45.8241 16.1652 46.6935 17.5386C47.563 18.912 48.128 20.4557 48.3506 22.0658C48.5732 23.676 48.4482 25.3151 47.9839 26.8729C47.5197 28.4306 46.727 29.8708 45.6593 31.0964C44.5916 32.322 43.2737 33.3046 41.7942 33.978C40.3148 34.6513 38.7083 34.9999 37.0828 35" stroke="#A0864D" stroke-width="3" stroke-linecap="round" stroke-linejoin="round"/>
<path d="M3.49927 43.1805C5.27581 40.6535 7.63428 38.5911 10.3756 37.1673C13.1168 35.7435 16.1605 35.0001 19.2494 35C22.3384 34.9999 25.3821 35.743 28.1235 37.1666C30.8649 38.5902 33.2235 40.6525 35.0003 43.1793" stroke="#A0864D" stroke-width="3" stroke-linecap="round" stroke-linejoin="round"/>
<path d="M37.0828 35C40.172 34.9978 43.2164 35.74 45.958 37.1637C48.6996 38.5875 51.0578 40.6509 52.8328 43.1793" stroke="#A0864D" stroke-width="3" stroke-linecap="round" stroke-linejoin="round"/>
</svg>
