<svg width="56" height="56" viewBox="0 0 56 56" fill="none" xmlns="http://www.w3.org/2000/svg">
<path d="M9.28853 42.8787C9.34308 43.1088 9.44361 43.3254 9.58407 43.5156C9.72452 43.7057 9.902 43.8655 10.1058 43.9853C10.3096 44.1051 10.5356 44.1825 10.7701 44.2127C11.0046 44.2429 11.2427 44.2253 11.4702 44.1611C21.9023 41.2807 32.9196 41.2797 43.3522 44.1581C43.5796 44.2222 43.8177 44.2397 44.0521 44.2095C44.2865 44.1793 44.5124 44.102 44.7161 43.9823C44.9199 43.8626 45.0973 43.7029 45.2378 43.5128C45.3782 43.3227 45.4788 43.1062 45.5334 42.8763L51.1091 19.182C51.1837 18.8648 51.1683 18.533 51.0646 18.2241C50.9609 17.9152 50.773 17.6414 50.522 17.4335C50.2711 17.2256 49.9671 17.0919 49.6443 17.0475C49.3214 17.003 48.9926 17.0496 48.6948 17.182L37.6296 22.0998C37.2301 22.2774 36.7785 22.299 36.3639 22.1603C35.9492 22.0216 35.6015 21.7327 35.3891 21.3505L28.9464 9.75364C28.7949 9.48083 28.5731 9.25351 28.3041 9.09524C28.0351 8.93697 27.7287 8.85352 27.4166 8.85352C27.1046 8.85352 26.7981 8.93697 26.5292 9.09524C26.2602 9.25351 26.0384 9.48083 25.8869 9.75364L19.4442 21.3505C19.2318 21.7327 18.8841 22.0216 18.4694 22.1603C18.0548 22.299 17.6032 22.2774 17.2036 22.0998L6.13677 17.1812C5.83905 17.0489 5.5103 17.0023 5.18754 17.0467C4.86477 17.0911 4.56082 17.2247 4.30988 17.4325C4.05895 17.6403 3.871 17.914 3.76721 18.2229C3.66341 18.5317 3.64789 18.8634 3.72239 19.1805L9.28853 42.8787Z" stroke="#A0864D" stroke-width="3" stroke-linecap="round" stroke-linejoin="round"/>
</svg>
