<svg width="1304" height="600" viewBox="0 0 1304 600" fill="none" xmlns="http://www.w3.org/2000/svg">
<path d="M56.0372 449.818V357.773L231.605 81.6364H315.128V204.364H267.401L172.799 354.364V357.773H431.89V449.818H56.0372ZM268.253 518V421.693L270.81 381.636V81.6364H381.605V518H268.253Z" fill="#4466B0"/>
<ellipse cx="652" cy="300" rx="161.679" ry="200" fill="#31426D"/>
<path opacity="0.78" d="M647.903 421.385L641.726 419.268C641.306 417.956 640.796 416.675 640.2 415.436L643.217 409.487C643.545 408.803 643.657 408.03 643.536 407.277C643.415 406.524 643.068 405.829 642.543 405.29L637.395 400.107C636.883 399.549 636.213 399.172 635.481 399.027C634.748 398.883 633.989 398.98 633.313 399.304L627.527 402.297C626.322 401.684 625.077 401.16 623.8 400.728L621.919 394.487C621.672 393.731 621.191 393.08 620.55 392.632C619.909 392.184 619.143 391.963 618.369 392.005H611.269C610.525 392.003 609.799 392.242 609.194 392.687C608.589 393.132 608.135 393.762 607.897 394.487L605.838 400.837C604.561 401.269 603.316 401.794 602.111 402.407L596.325 399.304C595.659 398.967 594.908 398.852 594.175 398.976C593.443 399.101 592.767 399.458 592.243 399.998L587.202 405.29C586.659 405.816 586.292 406.505 586.152 407.259C586.011 408.012 586.106 408.792 586.421 409.487L589.332 415.436C588.736 416.675 588.225 417.956 587.805 419.268L581.629 421.385C580.944 421.648 580.354 422.123 579.941 422.743C579.528 423.364 579.312 424.101 579.322 424.853V432.152C579.32 432.917 579.552 433.664 579.985 434.286C580.418 434.908 581.03 435.374 581.735 435.619L587.912 437.736C588.332 439.049 588.842 440.33 589.438 441.568L586.421 447.517C586.093 448.202 585.981 448.975 586.102 449.728C586.223 450.48 586.57 451.175 587.096 451.715L592.136 456.897C592.656 457.479 593.345 457.872 594.1 458.017C594.856 458.162 595.636 458.05 596.325 457.7L602.111 454.707C603.316 455.321 604.561 455.845 605.838 456.277L607.897 462.627C608.153 463.332 608.614 463.938 609.218 464.362C609.822 464.787 610.538 465.01 611.269 465H618.369C619.113 465.002 619.839 464.763 620.444 464.318C621.049 463.872 621.503 463.243 621.741 462.518L623.8 456.167C625.077 455.736 626.322 455.211 627.527 454.598L633.313 457.591C633.979 457.928 634.73 458.043 635.463 457.919C636.195 457.794 636.871 457.437 637.395 456.897L642.436 451.715C642.979 451.188 643.346 450.499 643.486 449.746C643.627 448.992 643.532 448.213 643.217 447.517L640.306 441.568C640.903 440.33 641.413 439.049 641.833 437.736L647.903 435.802C648.637 435.548 649.271 435.054 649.707 434.395C650.143 433.736 650.357 432.948 650.316 432.152V424.853C650.318 424.087 650.086 423.341 649.653 422.719C649.22 422.097 648.608 421.63 647.903 421.385ZM614.819 443.101C612.011 443.101 609.266 442.245 606.931 440.641C604.595 439.037 602.776 436.757 601.701 434.089C600.626 431.421 600.345 428.486 600.893 425.654C601.441 422.822 602.793 420.221 604.779 418.179C606.765 416.138 609.295 414.747 612.049 414.184C614.803 413.621 617.658 413.91 620.253 415.015C622.847 416.12 625.065 417.991 626.625 420.392C628.185 422.792 629.018 425.615 629.018 428.502C629.018 432.374 627.522 436.088 624.859 438.825C622.196 441.563 618.585 443.101 614.819 443.101Z" fill="#DFDFDF"/>
<path d="M819.321 300C819.321 410.457 744.553 500 652.321 500C560.09 500 485.321 410.457 485.321 300C485.321 189.543 560.09 100 652.321 100C744.553 100 819.321 189.543 819.321 300ZM500.847 300C500.847 400.188 568.664 481.407 652.321 481.407C735.978 481.407 803.796 400.188 803.796 300C803.796 199.812 735.978 118.593 652.321 118.593C568.664 118.593 500.847 199.812 500.847 300Z" fill="#4466B0"/>
<path d="M850.595 104.756L810.513 69.8003L829.76 46.2797L869.841 81.2357L850.595 104.756ZM821.051 68.9138L849.68 93.8824L859.304 82.1221L830.674 57.1535L821.051 68.9138Z" fill="#31426D"/>
<path d="M852.788 83.9575L847.019 78.9255L838.535 89.2946L844.304 94.3265L852.788 83.9575Z" fill="#31426D"/>
<path d="M835.676 69.1792L829.907 64.1472L821.423 74.5162L827.192 79.5482L835.676 69.1792Z" fill="#31426D"/>
<path d="M823.694 137.432L783.588 102.442C778.848 98.308 778.233 90.9842 782.216 86.1154L806.292 56.6842L863.588 106.669L839.512 136.1C835.529 140.969 828.434 141.566 823.694 137.432ZM807.206 67.5689L787.946 91.1139C786.618 92.7363 786.822 95.1773 788.403 96.5562L828.51 131.546C830.09 132.925 832.455 132.724 833.782 131.102L853.043 107.557L807.206 67.5689Z" fill="#31426D"/>
<path d="M691.437 92.231L666.612 70.574L679.922 54.304L704.746 75.9609L691.437 92.231ZM677.156 69.6871L690.522 81.3478L694.203 76.8479L680.837 65.1871L677.156 69.6871Z" fill="#31426D"/>
<path d="M704.961 85.8699L670.568 55.8596L683.745 39.7486C687.729 34.8767 694.828 34.2791 699.569 38.4163L716.765 53.4214C721.507 57.5585 722.122 64.887 718.138 69.7589L704.961 85.8699ZM681.117 54.9714L704.046 74.9782L712.406 64.7571C713.733 63.1337 713.53 60.6912 711.948 59.3113L694.752 44.3062C693.17 42.9263 690.805 43.1268 689.477 44.7503L681.117 54.9714Z" fill="#31426D"/>
<path d="M707.267 184.189C691.429 170.366 689.377 145.87 702.696 129.583L743.758 79.3715C751.75 69.5991 750.52 54.9026 741.016 46.6084C731.512 38.3142 717.28 39.5166 709.288 49.289L708.08 50.7658L702.335 45.7521L703.543 44.2753C714.198 31.2463 733.175 29.6429 745.847 40.7011C758.518 51.7592 760.158 71.3563 749.503 84.3852L708.441 134.597C697.787 147.626 699.427 167.223 712.098 178.281C724.769 189.339 743.747 187.736 754.402 174.707L802.71 115.634L808.455 120.648L760.147 179.721C746.828 196.008 723.106 198.011 707.267 184.189Z" fill="#31426D"/>
<path d="M619.468 326.523L612.731 324.204C612.272 322.765 611.716 321.361 611.066 320.004L614.357 313.484C614.715 312.734 614.837 311.887 614.705 311.062C614.573 310.237 614.194 309.476 613.621 308.885L608.006 303.205C607.448 302.594 606.717 302.179 605.918 302.022C605.118 301.864 604.291 301.97 603.553 302.325L597.242 305.605C595.927 304.933 594.569 304.358 593.176 303.885L591.123 297.045C590.854 296.218 590.33 295.504 589.63 295.012C588.931 294.521 588.095 294.28 587.251 294.326H579.507C578.695 294.324 577.903 294.585 577.243 295.073C576.583 295.561 576.088 296.251 575.828 297.045L573.582 304.005C572.189 304.478 570.83 305.053 569.516 305.725L563.204 302.325C562.478 301.955 561.658 301.829 560.859 301.966C560.061 302.102 559.323 302.493 558.751 303.085L553.253 308.885C552.661 309.462 552.26 310.217 552.107 311.042C551.954 311.868 552.057 312.722 552.401 313.484L555.576 320.004C554.925 321.361 554.369 322.765 553.911 324.204L547.173 326.523C546.426 326.812 545.783 327.332 545.332 328.012C544.882 328.692 544.646 329.499 544.656 330.323V338.323C544.654 339.161 544.907 339.979 545.38 340.661C545.852 341.343 546.52 341.854 547.289 342.122L554.027 344.442C554.485 345.881 555.042 347.284 555.692 348.642L552.401 355.161C552.042 355.911 551.921 356.758 552.053 357.583C552.185 358.408 552.564 359.17 553.136 359.761L558.635 365.441C559.202 366.078 559.954 366.509 560.778 366.667C561.602 366.826 562.453 366.704 563.204 366.32L569.516 363.041C570.83 363.713 572.189 364.287 573.582 364.761L575.828 371.72C576.107 372.492 576.61 373.156 577.269 373.622C577.927 374.087 578.709 374.331 579.507 374.32H587.251C588.063 374.322 588.855 374.061 589.515 373.573C590.175 373.085 590.67 372.395 590.93 371.6L593.176 364.641C594.569 364.167 595.927 363.593 597.242 362.921L603.553 366.2C604.279 366.571 605.099 366.696 605.898 366.56C606.697 366.424 607.434 366.032 608.006 365.441L613.505 359.761C614.097 359.184 614.498 358.429 614.651 357.603C614.804 356.778 614.701 355.923 614.357 355.161L611.182 348.642C611.832 347.284 612.389 345.881 612.847 344.442L619.468 342.322C620.27 342.044 620.961 341.502 621.437 340.78C621.912 340.058 622.146 339.195 622.101 338.323V330.323C622.104 329.485 621.85 328.667 621.378 327.985C620.905 327.303 620.237 326.792 619.468 326.523ZM583.379 350.322C580.315 350.322 577.321 349.383 574.774 347.625C572.226 345.867 570.241 343.369 569.069 340.445C567.896 337.522 567.59 334.305 568.187 331.202C568.785 328.098 570.26 325.247 572.426 323.01C574.593 320.772 577.352 319.249 580.357 318.631C583.362 318.014 586.476 318.331 589.306 319.542C592.136 320.753 594.556 322.803 596.257 325.434C597.959 328.065 598.868 331.159 598.868 334.323C598.868 338.566 597.236 342.635 594.331 345.636C591.426 348.636 587.487 350.322 583.379 350.322Z" fill="#4466B0"/>
<path d="M559.134 286.203L552.396 283.883C551.938 282.444 551.382 281.041 550.731 279.684L554.022 273.164C554.381 272.414 554.502 271.567 554.37 270.742C554.239 269.917 553.859 269.155 553.287 268.564L547.672 262.885C547.113 262.273 546.382 261.859 545.583 261.701C544.784 261.543 543.956 261.65 543.219 262.005L536.907 265.285C535.593 264.613 534.234 264.038 532.841 263.565L530.789 256.725C530.519 255.897 529.995 255.183 529.296 254.692C528.597 254.201 527.761 253.96 526.917 254.005H519.172C518.36 254.003 517.568 254.265 516.908 254.753C516.248 255.241 515.753 255.931 515.493 256.725L513.247 263.685C511.854 264.158 510.496 264.733 509.182 265.405L502.87 262.005C502.144 261.635 501.324 261.509 500.525 261.645C499.726 261.782 498.989 262.173 498.417 262.765L492.918 268.564C492.326 269.141 491.925 269.896 491.772 270.722C491.619 271.548 491.722 272.402 492.066 273.164L495.241 279.684C494.591 281.041 494.034 282.444 493.576 283.883L486.839 286.203C486.091 286.491 485.448 287.011 484.998 287.691C484.547 288.372 484.311 289.179 484.322 290.003V298.002C484.32 298.841 484.573 299.659 485.045 300.341C485.518 301.022 486.186 301.534 486.955 301.802L493.693 304.122C494.151 305.561 494.707 306.964 495.358 308.322L492.066 314.841C491.708 315.591 491.586 316.438 491.718 317.263C491.85 318.088 492.229 318.85 492.802 319.441L498.301 325.12C498.867 325.758 499.619 326.188 500.443 326.347C501.267 326.506 502.119 326.384 502.87 326L509.182 322.72C510.496 323.392 511.854 323.967 513.247 324.44L515.493 331.4C515.773 332.172 516.276 332.836 516.934 333.301C517.593 333.767 518.374 334.011 519.172 334H526.917C527.728 334.002 528.52 333.74 529.18 333.252C529.841 332.764 530.335 332.074 530.595 331.28L532.841 324.32C534.234 323.847 535.593 323.272 536.907 322.6L543.219 325.88C543.945 326.25 544.765 326.376 545.564 326.24C546.362 326.103 547.1 325.712 547.672 325.12L553.171 319.441C553.763 318.864 554.163 318.109 554.316 317.283C554.469 316.457 554.366 315.603 554.022 314.841L550.847 308.322C551.498 306.964 552.054 305.561 552.512 304.122L559.134 302.002C559.935 301.724 560.627 301.182 561.102 300.46C561.578 299.738 561.811 298.874 561.767 298.002V290.003C561.769 289.164 561.516 288.346 561.044 287.664C560.571 286.983 559.903 286.471 559.134 286.203ZM523.044 310.001C519.981 310.001 516.986 309.063 514.439 307.305C511.892 305.547 509.907 303.048 508.734 300.125C507.562 297.202 507.255 293.985 507.853 290.881C508.451 287.778 509.926 284.927 512.092 282.69C514.258 280.452 517.018 278.928 520.023 278.311C523.027 277.694 526.141 278.011 528.972 279.222C531.802 280.432 534.221 282.483 535.923 285.114C537.625 287.745 538.533 290.838 538.533 294.003C538.533 298.246 536.902 302.315 533.997 305.315C531.092 308.316 527.152 310.001 523.044 310.001Z" fill="#4466B0"/>
<path opacity="0.78" d="M641.782 230.376L633.089 228.515C632.316 226.798 631.427 225.14 630.427 223.553L633.589 214.962C633.927 213.977 633.958 212.907 633.677 211.903C633.397 210.898 632.818 210.01 632.023 209.363L624.248 203.162C623.468 202.487 622.502 202.083 621.487 202.008C620.473 201.933 619.461 202.19 618.596 202.742L611.225 207.768C609.498 207.133 607.73 206.625 605.934 206.248L602.417 198.068C601.965 197.081 601.213 196.274 600.275 195.77C599.338 195.266 598.266 195.093 597.224 195.277L587.61 196.448C586.602 196.568 585.656 197.012 584.906 197.718C584.155 198.424 583.639 199.355 583.429 200.38L581.627 209.36C579.965 210.158 578.36 211.076 576.823 212.109L568.506 208.843C567.553 208.494 566.517 208.462 565.544 208.752C564.572 209.042 563.712 209.639 563.086 210.46L557.082 218.491C556.429 219.297 556.038 220.294 555.965 221.343C555.892 222.391 556.141 223.436 556.676 224.33L561.542 231.943C560.927 233.726 560.435 235.553 560.07 237.408L552.034 241.307C551.147 241.778 550.423 242.52 549.96 243.433C549.497 244.345 549.318 245.383 549.448 246.404L550.582 256.335C550.698 257.376 551.128 258.353 551.812 259.128C552.495 259.903 553.396 260.437 554.389 260.654L563.082 262.515C563.855 264.232 564.744 265.89 565.744 267.477L562.582 276.068C562.244 277.053 562.213 278.123 562.494 279.127C562.774 280.131 563.353 281.019 564.148 281.666L571.778 287.886C572.573 288.591 573.567 289.012 574.612 289.085C575.657 289.157 576.697 288.877 577.575 288.287L584.946 283.261C586.673 283.897 588.441 284.405 590.237 284.782L594.012 293.081C594.468 293.998 595.186 294.746 596.07 295.224C596.953 295.702 597.958 295.887 598.947 295.753L608.561 294.582C609.569 294.462 610.515 294.017 611.265 293.312C612.016 292.606 612.532 291.675 612.742 290.649L614.544 281.67C616.206 280.872 617.811 279.953 619.347 278.92L627.648 282.037C628.601 282.387 629.637 282.419 630.61 282.129C631.582 281.839 632.442 281.242 633.068 280.421L639.089 272.539C639.742 271.733 640.133 270.735 640.206 269.687C640.279 268.639 640.03 267.594 639.495 266.7L634.629 259.087C635.244 257.303 635.736 255.477 636.101 253.621L644.021 249.989C644.976 249.522 645.758 248.745 646.245 247.777C646.733 246.808 646.901 245.701 646.723 244.625L645.589 234.695C645.473 233.653 645.043 232.676 644.359 231.901C643.676 231.126 642.775 230.593 641.782 230.376ZM600.353 265.376C596.55 265.839 592.699 265.127 589.288 263.33C585.877 261.532 583.058 258.731 581.189 255.279C579.319 251.827 578.482 247.88 578.784 243.937C579.087 239.994 580.514 236.232 582.886 233.127C585.258 230.022 588.468 227.713 592.111 226.492C595.753 225.272 599.664 225.194 603.349 226.269C607.034 227.345 610.328 229.525 612.813 232.533C615.299 235.542 616.865 239.245 617.314 243.173C617.915 248.44 616.466 253.739 613.285 257.903C610.104 262.066 605.452 264.755 600.353 265.376Z" fill="white"/>
<rect x="601.321" y="135" width="200" height="200" rx="100" fill="#4466B0"/>
<path d="M631.556 176.93C632.037 175.762 633.175 175 634.438 175H768.205C769.468 175 770.606 175.762 771.087 176.93C771.242 177.306 771.321 177.709 771.321 178.117V180V182.361C771.321 182.781 771.221 183.195 771.029 183.569C770.576 184.448 769.671 185 768.682 185H633.961C632.972 185 632.066 184.448 631.614 183.569C631.422 183.195 631.321 182.781 631.321 182.361V180V178.117C631.321 177.709 631.401 177.306 631.556 176.93Z" fill="#31426D"/>
<path d="M631.556 194.93C632.037 193.762 633.175 193 634.438 193H768.205C769.468 193 770.606 193.762 771.087 194.93C771.242 195.306 771.321 195.709 771.321 196.117V198V200.361C771.321 200.781 771.221 201.195 771.029 201.569C770.576 202.448 769.671 203 768.682 203H633.961C632.972 203 632.066 202.448 631.614 201.569C631.422 201.195 631.321 200.781 631.321 200.361V198V196.117C631.321 195.709 631.401 195.306 631.556 194.93Z" fill="#31426D"/>
<path d="M631.556 212.93C632.037 211.762 633.175 211 634.438 211H768.205C769.468 211 770.606 211.762 771.087 212.93C771.242 213.306 771.321 213.709 771.321 214.117V216V218.361C771.321 218.781 771.221 219.195 771.029 219.569C770.576 220.448 769.671 221 768.682 221H633.961C632.972 221 632.066 220.448 631.614 219.569C631.422 219.195 631.321 218.781 631.321 218.361V216V214.117C631.321 213.709 631.401 213.306 631.556 212.93Z" fill="#31426D"/>
<path d="M631.556 230.93C632.037 229.762 633.175 229 634.438 229H768.205C769.468 229 770.606 229.762 771.087 230.93C771.242 231.306 771.321 231.709 771.321 232.117V234V236.361C771.321 236.781 771.221 237.195 771.029 237.569C770.576 238.448 769.671 239 768.682 239H633.961C632.972 239 632.066 238.448 631.614 237.569C631.422 237.195 631.321 236.781 631.321 236.361V234V232.117C631.321 231.709 631.401 231.306 631.556 230.93Z" fill="#31426D"/>
<circle cx="658.821" cy="271" r="8" fill="#D9D9D9"/>
<circle cx="743.821" cy="271" r="8" fill="#31426D"/>
<path d="M769.725 354.576L757.26 350.284C756.412 347.622 755.383 345.026 754.179 342.515L760.268 330.453C760.931 329.066 761.156 327.499 760.912 325.973C760.668 324.446 759.967 323.037 758.907 321.944L748.52 311.437C747.487 310.306 746.135 309.54 744.656 309.247C743.177 308.955 741.646 309.152 740.282 309.809L728.605 315.877C726.174 314.633 723.66 313.57 721.083 312.695L717.286 300.042C716.788 298.51 715.818 297.189 714.524 296.281C713.231 295.372 711.685 294.926 710.123 295.01H695.795C694.293 295.006 692.828 295.49 691.607 296.393C690.386 297.295 689.47 298.572 688.99 300.042L684.835 312.917C682.258 313.792 679.744 314.855 677.313 316.099L665.636 309.809C664.293 309.124 662.776 308.892 661.298 309.144C659.82 309.396 658.456 310.12 657.398 311.215L647.225 321.944C646.13 323.011 645.388 324.408 645.106 325.936C644.823 327.463 645.013 329.044 645.649 330.453L651.524 342.515C650.32 345.026 649.291 347.622 648.443 350.284L635.978 354.576C634.596 355.109 633.406 356.071 632.573 357.329C631.739 358.587 631.302 360.081 631.322 361.605V376.404C631.318 377.955 631.786 379.469 632.66 380.73C633.535 381.992 634.77 382.937 636.193 383.434L648.658 387.725C649.506 390.387 650.535 392.984 651.738 395.495L645.649 407.556C644.986 408.943 644.761 410.51 645.005 412.037C645.25 413.563 645.951 414.972 647.01 416.065L657.183 426.573C658.232 427.752 659.622 428.549 661.147 428.842C662.671 429.136 664.246 428.911 665.636 428.2L677.313 422.133C679.744 423.376 682.258 424.439 684.835 425.315L688.99 438.19C689.506 439.618 690.437 440.846 691.655 441.707C692.873 442.568 694.319 443.02 695.795 442.999H710.123C711.624 443.003 713.089 442.52 714.311 441.617C715.532 440.714 716.448 439.437 716.928 437.968L721.083 425.093C723.66 424.217 726.174 423.154 728.605 421.911L740.282 427.978C741.625 428.663 743.142 428.896 744.62 428.643C746.097 428.391 747.461 427.667 748.52 426.573L758.692 416.065C759.788 414.998 760.529 413.601 760.812 412.074C761.095 410.546 760.905 408.965 760.268 407.556L754.394 395.495C755.598 392.984 756.627 390.387 757.475 387.725L769.725 383.804C771.207 383.289 772.486 382.287 773.366 380.951C774.245 379.615 774.677 378.018 774.596 376.404V361.605C774.6 360.054 774.132 358.541 773.257 357.279C772.383 356.018 771.147 355.072 769.725 354.576ZM702.959 398.603C697.292 398.603 691.751 396.867 687.039 393.614C682.327 390.362 678.654 385.74 676.485 380.331C674.316 374.923 673.749 368.972 674.855 363.23C675.96 357.489 678.689 352.215 682.697 348.076C686.704 343.937 691.81 341.118 697.369 339.976C702.927 338.834 708.689 339.42 713.925 341.66C719.161 343.9 723.636 347.694 726.784 352.561C729.933 357.428 731.614 363.151 731.614 369.005C731.614 376.855 728.595 384.383 723.221 389.934C717.847 395.484 710.559 398.603 702.959 398.603Z" fill="#F1E4FF"/>
<path d="M572.766 444.505L556.271 435.125C550.272 431.712 548.884 423.275 553.166 416.284L553.388 415.907C557.675 408.921 566.011 406.012 572.01 409.427L588.499 418.808C590.322 407.118 586.017 395.878 576.406 390.405L565.439 384.166C554.767 378.107 540.829 380.967 530.715 390.227C530.012 389.245 529.14 388.387 528.043 387.776L476.581 358.504C471.739 355.749 465.02 358.098 461.57 363.744L461.38 364.029C457.933 369.675 459.048 376.476 463.887 379.228L515.348 408.503C516.444 409.123 517.636 409.446 518.868 409.569C515.345 422.575 519.492 435.714 530.154 441.788L541.122 448.016C550.74 453.491 563.019 451.693 572.766 444.505Z" fill="#4466B0"/>
<path d="M456.392 374.485C455.382 370.564 456.129 366.145 458.438 362.362L458.7 361.964C460.943 358.289 464.595 355.519 468.647 354.474C472.056 353.593 475.5 354.002 478.347 355.621L529.807 384.892C530.204 385.114 530.59 385.363 530.964 385.64C542.161 376.933 556.36 375.126 567.203 381.283L578.174 387.524C584.666 391.22 589.324 397.459 591.289 405.09C592.451 409.599 592.652 414.365 591.89 419.258C591.718 420.359 590.994 421.315 589.959 421.803C588.924 422.291 587.714 422.25 586.734 421.692L570.245 412.313C565.877 409.825 559.635 412.191 556.327 417.584L556.14 417.902C554.277 420.944 553.666 424.362 554.43 427.325C554.824 428.857 555.77 430.952 558.037 432.242L574.532 441.625C575.513 442.182 576.137 443.181 576.191 444.292C576.246 445.402 575.729 446.475 574.811 447.152C563.513 455.484 549.927 456.919 539.355 450.9L528.392 444.677C521.886 440.97 517.223 434.728 515.259 427.103C515.258 427.1 515.258 427.1 515.258 427.1C514.026 422.316 513.883 417.152 514.823 411.992C514.395 411.814 513.983 411.613 513.585 411.39L462.121 382.11C459.277 380.493 457.242 377.786 456.392 374.485ZM584.634 406.802C583.112 400.892 579.561 396.09 574.639 393.288L563.672 387.05C554.62 381.909 542.311 384.154 533.045 392.635C532.314 393.305 531.328 393.635 530.338 393.544C529.349 393.453 528.457 392.948 527.892 392.16C527.409 391.486 526.889 390.999 526.303 390.672L474.814 361.386C473.18 360.457 471.462 360.616 470.31 360.913C468.009 361.507 465.894 363.146 464.51 365.411L464.249 365.808C462.936 367.964 462.471 370.544 463.045 372.772C463.333 373.888 464.018 375.415 465.651 376.343L517.112 405.617C517.713 405.958 518.42 406.165 519.27 406.251C520.257 406.35 521.144 406.861 521.701 407.648C522.26 408.439 522.435 409.429 522.181 410.368C520.794 415.49 520.7 420.683 521.909 425.383L521.91 425.385C523.431 431.293 526.987 436.094 531.92 438.905L542.883 445.128C549.71 449.016 558.304 448.767 566.219 444.671L554.504 438.006C551.164 436.108 548.775 432.922 547.774 429.039C546.572 424.375 547.468 419.118 550.226 414.613L550.413 414.291C555.706 405.664 566.171 402.215 573.774 406.543L585.47 413.197C585.439 410.991 585.158 408.834 584.634 406.802Z" fill="#31426D"/>
<path d="M875.395 449.818V357.773L1050.96 81.6364H1134.49V204.364H1086.76L992.156 354.364V357.773H1251.25V449.818H875.395ZM1087.61 518V421.693L1090.17 381.636V81.6364H1200.96V518H1087.61Z" fill="#4466B0"/>
</svg>
