<svg width="208" height="98" viewBox="0 0 208 98" fill="none" xmlns="http://www.w3.org/2000/svg">
<g filter="url(#filter0_d_181_1511)">
<g clip-path="url(#clip0_181_1511)">
<rect x="4" y="2" width="200" height="90" rx="24" fill="#E4CAFF"/>
<path d="M90.1446 86.426L88.7229 72.5784C82.1829 76.7274 74.5347 80.5932 66.1028 83.8445C53.6474 88.6452 41.4618 91.349 31.0867 92H85.0922C88.1012 91.9992 90.451 89.4072 90.1446 86.426Z" fill="url(#paint0_linear_181_1511)"/>
<path d="M83.7252 23.9182C83.46 21.3368 81.2773 19.3737 78.6726 19.3737H69.9988V16.6069C69.9988 8.55266 63.4196 2 55.3328 2C47.246 2 40.6668 8.55266 40.6668 16.6069V19.3737H31.9915C29.3861 19.3737 27.2033 21.3368 26.9388 23.9182L22.0904 71.1286L46.2748 50.7967L32.0774 44.7034L77.886 33.4523L58.1612 76.1392L54.8272 61.1038L21.2397 89.3412C33.2415 90.3305 49.4317 87.659 66.1034 81.2322C74.4269 78.0238 81.9881 74.2159 88.472 70.1268L83.7252 23.9182ZM66.7281 19.3744H43.9361V16.6077C43.9361 10.3491 49.0482 5.25757 55.332 5.25757C61.6158 5.25757 66.7281 10.3491 66.7281 16.6077V19.3744Z" fill="url(#paint1_linear_181_1511)"/>
<path d="M111.089 32.5458C108.373 25.789 98.9243 22.5269 86.1678 22.8173C94.2217 23.5092 100.016 26.2423 101.926 30.9924C106.215 41.6626 89.3041 58.4412 64.1556 68.4691C39.0068 78.497 15.1426 77.9765 10.854 67.3066C8.80533 62.2105 11.6014 55.7209 17.8129 49.2388C7.20876 58.2611 1.89691 67.7772 4.77511 74.9377C9.78181 87.3928 37.64 88.001 66.9984 76.2952C96.3551 64.5886 116.096 45.0012 111.089 32.5458Z" fill="url(#paint2_linear_181_1511)"/>
<path opacity="0.58" d="M6.05364 72.2429C10.8652 84.2127 37.6362 84.797 65.8478 73.5471C94.0591 62.2976 113.029 43.4747 108.219 31.5056C106.83 28.0514 103.598 25.5578 99.0426 24.0127C96.0059 23.269 92.5243 22.8683 88.7003 22.809C90.0261 23.0942 91.2554 23.4551 92.3797 23.8896C97.1632 25.2104 100.552 27.5771 101.925 30.9916C106.214 41.6618 89.3033 58.4404 64.1548 68.4683C39.006 78.4962 15.1418 77.9757 10.8531 67.3058C9.5444 64.0505 10.221 60.2249 12.4934 56.1974C13.1467 54.6928 14.0515 53.1484 15.1871 51.5846C11.8342 54.7355 9.14733 57.9158 7.24862 61.0076C5.23238 65.0748 4.71928 68.9237 6.05364 72.2429Z" fill="url(#paint3_linear_181_1511)"/>
<path d="M12.2923 33.1618L13.7645 39.4826L20.1108 40.9497L13.7645 42.416L12.2923 48.7375L10.8192 42.416L4.4729 40.9497L10.8192 39.4826L12.2923 33.1618Z" fill="url(#paint4_linear_181_1511)"/>
<path d="M21.1718 26.52L21.7694 29.0857L24.3447 29.6807L21.7694 30.2759L21.1718 32.8415L20.5736 30.2759L17.9983 29.6807L20.5736 29.0857L21.1718 26.52Z" fill="url(#paint5_linear_181_1511)"/>
<path d="M97.8742 67.4906L98.794 71.4408L102.76 72.3571L98.794 73.2733L97.8742 77.2235L96.9536 73.2733L92.988 72.3571L96.9536 71.4408L97.8742 67.4906Z" fill="url(#paint6_linear_181_1511)"/>
<g filter="url(#filter1_d_181_1511)">
<path d="M35.8836 37.603L33.6188 32.6592H41.6376L51.2233 52.2632H42.6252L41.1768 49.1255H33.4609L32.0256 52.2632H28.6943L35.8836 37.603ZM39.7943 46.1065L37.3188 40.7275L34.8566 46.1065H39.7943ZM53.9094 32.6592H65.1937C66.6508 32.6592 67.9236 32.813 69.0121 33.1206C70.1094 33.4282 71.0223 33.8589 71.7509 34.4126C72.4882 34.9663 73.0412 35.6299 73.4099 36.4033C73.7786 37.1767 73.9629 38.0293 73.9629 38.9609C73.9629 40.1123 73.6908 41.1362 73.1465 42.0328C72.6024 42.9204 71.7948 43.6279 70.7239 44.1553L74.8319 52.2632H66.2338L63.1264 45.1441H61.52V52.25H53.9094V32.6592ZM61.9809 42.7579C62.6041 42.7579 63.1615 42.67 63.6531 42.4942C64.1447 42.3184 64.5616 42.0723 64.9039 41.7559C65.2463 41.4307 65.5096 41.0484 65.694 40.6089C65.8783 40.1607 65.9705 39.6729 65.9705 39.1455C65.9705 38.6182 65.8783 38.1348 65.694 37.6954C65.5096 37.2471 65.2463 36.8647 64.9039 36.5484C64.5616 36.2232 64.1447 35.9727 63.6531 35.7969C63.1615 35.6211 62.6041 35.5332 61.9809 35.5332H61.5331L61.52 42.7579H61.9809ZM81.9162 35.665H76.3331V32.646H95.1095V35.665H89.5267V52.25H81.9162V35.665ZM97.9664 32.6592H105.59L105.577 49.231H113.056V52.25H97.9664V32.6592ZM121.602 37.603L119.337 32.6592H127.356L136.942 52.2632H128.343L126.894 49.1255H119.179L117.744 52.2632H114.412L121.602 37.603ZM125.512 46.1065L123.037 40.7275L120.575 46.1065H125.512ZM139.627 32.6592H144.394L156.811 43.1006L156.824 32.6592H159.721V52.25H154.954L142.524 41.8482V52.25H139.627V32.6592ZM163.578 42.4678C163.578 41.5361 163.697 40.6396 163.934 39.7783C164.18 38.9082 164.535 38.0996 165.001 37.3525C165.466 36.6055 166.036 35.9243 166.712 35.3091C167.388 34.6939 168.156 34.1665 169.017 33.727C169.885 33.2876 170.842 32.9492 171.887 32.7119C172.931 32.4658 174.055 32.3428 175.258 32.3428C176.03 32.3428 176.768 32.3911 177.47 32.4878C178.181 32.5845 178.848 32.7207 179.471 32.8965C180.094 33.0635 180.67 33.2612 181.196 33.4897C181.731 33.7095 182.214 33.9424 182.644 34.1885L181.512 36.4033C181.02 36.166 180.459 35.9683 179.827 35.8101C179.203 35.6431 178.554 35.5596 177.878 35.5596C176.974 35.5596 176.136 35.7222 175.363 36.0474C174.59 36.3726 173.924 36.834 173.362 37.4317C172.8 38.0293 172.357 38.7544 172.032 39.607C171.715 40.4507 171.557 41.3999 171.557 42.4546C171.557 43.5005 171.715 44.4497 172.032 45.3022C172.348 46.146 172.782 46.8711 173.335 47.4775C173.897 48.0752 174.56 48.541 175.324 48.875C176.096 49.2002 176.93 49.3628 177.826 49.3628C178.457 49.3628 179.089 49.2881 179.721 49.1387C180.354 48.9805 180.933 48.7739 181.459 48.5191L182.592 50.7339C182.162 50.9888 181.683 51.2261 181.157 51.4458C180.63 51.6655 180.059 51.8633 179.445 52.0391C178.83 52.2061 178.172 52.3379 177.47 52.4346C176.768 52.5313 176.03 52.5796 175.258 52.5796C173.459 52.5796 171.835 52.316 170.386 51.7886C168.946 51.2525 167.721 50.5273 166.712 49.6133C165.703 48.6904 164.926 47.6182 164.381 46.3965C163.847 45.166 163.578 43.8565 163.578 42.4678ZM185.686 32.6592H202.224V35.6782H193.31L193.297 40.9648H200.117V43.9839H193.297V49.231H202.224V52.25H185.686V32.6592Z" fill="#041C4F"/>
</g>
<g filter="url(#filter2_d_181_1511)">
<path d="M82.7566 72.5L86.5558 64.1H87.7424L91.5536 72.5H90.2952L86.9034 64.772H87.3828L83.9911 72.5H82.7566ZM84.3746 70.4L84.6982 69.44H89.4203L89.7678 70.4H84.3746ZM92.8053 72.5V64.1H96.0772C96.812 64.1 97.4397 64.2161 97.9588 64.448C98.4779 64.68 98.8779 65.016 99.1573 65.456C99.4367 65.8961 99.5768 66.42 99.5768 67.028C99.5768 67.6361 99.4367 68.16 99.1573 68.6C98.8779 69.032 98.4779 69.3641 97.9588 69.596C97.4397 69.828 96.812 69.944 96.0772 69.944H93.4645L94.0038 69.392V72.5H92.8053ZM98.4143 72.5L96.2809 69.452H97.5633L99.7206 72.5H98.4143ZM94.0038 69.512L93.4645 68.924H96.0412C96.8083 68.924 97.3873 68.76 97.7791 68.432C98.1783 68.096 98.3783 67.628 98.3783 67.028C98.3783 66.428 98.1783 65.964 97.7791 65.636C97.3873 65.3081 96.8083 65.144 96.0412 65.144H93.4645L94.0038 64.544V69.512ZM103.062 72.5V65.144H100.186V64.1H107.125V65.144H104.249V72.5H103.062ZM111.649 72.5V64.1H112.631L116.395 70.448H115.867L119.583 64.1H120.566L120.578 72.5H119.427L119.415 65.912H119.691L116.383 71.48H115.831L112.5 65.912H112.799V72.5H111.649ZM121.825 72.5L125.625 64.1H126.811L130.623 72.5H129.364L125.972 64.772H126.452L123.06 72.5H121.825ZM123.443 70.4L123.767 69.44H128.489L128.837 70.4H123.443ZM131.873 72.5V64.1H135.145C135.881 64.1 136.508 64.2161 137.027 64.448C137.547 64.68 137.946 65.016 138.226 65.456C138.506 65.8961 138.645 66.42 138.645 67.028C138.645 67.6361 138.506 68.16 138.226 68.6C137.946 69.032 137.547 69.3641 137.027 69.596C136.508 69.828 135.881 69.944 135.145 69.944H132.533L133.072 69.392V72.5H131.873ZM137.482 72.5L135.349 69.452H136.632L138.789 72.5H137.482ZM133.072 69.512L132.533 68.924H135.109C135.876 68.924 136.456 68.76 136.847 68.432C137.247 68.096 137.446 67.628 137.446 67.028C137.446 66.428 137.247 65.964 136.847 65.636C136.456 65.3081 135.876 65.144 135.109 65.144H132.533L133.072 64.544V69.512ZM141.636 70.472L141.576 69.008L146.334 64.1H147.7L144.021 67.988L143.35 68.732L141.636 70.472ZM140.581 72.5V64.1H141.78V72.5H140.581ZM146.526 72.5L143.086 68.492L143.889 67.604L147.928 72.5H146.526ZM150.286 67.724H154.601V68.744H150.286V67.724ZM150.394 71.456H155.284V72.5H149.196V64.1H155.116V65.144H150.394V71.456ZM158.891 72.5V65.144H156.014V64.1H162.954V65.144H160.077V72.5H158.891ZM164.259 72.5V64.1H167.531C168.266 64.1 168.893 64.2161 169.413 64.448C169.932 64.68 170.331 65.016 170.611 65.456C170.891 65.8961 171.031 66.42 171.031 67.028C171.031 67.6361 170.891 68.16 170.611 68.6C170.331 69.032 169.932 69.368 169.413 69.608C168.893 69.84 168.266 69.956 167.531 69.956H164.918L165.458 69.392V72.5H164.259ZM165.458 69.512L164.918 68.912H167.495C168.262 68.912 168.841 68.748 169.233 68.42C169.632 68.0921 169.832 67.628 169.832 67.028C169.832 66.428 169.632 65.964 169.233 65.636C168.841 65.3081 168.262 65.144 167.495 65.144H164.918L165.458 64.544V69.512ZM172.791 72.5V64.1H173.99V71.456H178.532V72.5H172.791ZM178.637 72.5L182.436 64.1H183.623L187.434 72.5H186.175L182.784 64.772H183.263L179.871 72.5H178.637ZM180.255 70.4L180.578 69.44H185.3L185.648 70.4H180.255ZM192.32 72.596C191.68 72.596 191.089 72.492 190.546 72.284C190.011 72.068 189.543 71.768 189.144 71.384C188.752 70.992 188.444 70.536 188.221 70.016C187.997 69.4961 187.885 68.924 187.885 68.3C187.885 67.676 187.997 67.104 188.221 66.584C188.444 66.0641 188.756 65.612 189.156 65.228C189.555 64.836 190.023 64.536 190.558 64.328C191.101 64.112 191.692 64.004 192.332 64.004C192.979 64.004 193.574 64.116 194.118 64.34C194.669 64.556 195.136 64.88 195.52 65.312L194.741 66.068C194.421 65.732 194.061 65.484 193.662 65.324C193.262 65.156 192.835 65.072 192.38 65.072C191.908 65.072 191.469 65.1521 191.061 65.312C190.661 65.472 190.314 65.696 190.019 65.984C189.723 66.272 189.491 66.6161 189.324 67.016C189.163 67.4081 189.084 67.836 189.084 68.3C189.084 68.7641 189.163 69.1961 189.324 69.596C189.491 69.9881 189.723 70.328 190.019 70.616C190.314 70.904 190.661 71.1281 191.061 71.288C191.469 71.448 191.908 71.528 192.38 71.528C192.835 71.528 193.262 71.448 193.662 71.288C194.061 71.12 194.421 70.8641 194.741 70.52L195.52 71.276C195.136 71.708 194.669 72.036 194.118 72.26C193.574 72.4841 192.975 72.596 192.32 72.596ZM198.32 67.724H202.634V68.744H198.32V67.724ZM198.428 71.456H203.318V72.5H197.229V64.1H203.15V65.144H198.428V71.456Z" fill="#041C4F"/>
</g>
</g>
</g>
<defs>
<filter id="filter0_d_181_1511" x="0" y="0" width="208" height="98" filterUnits="userSpaceOnUse" color-interpolation-filters="sRGB">
<feFlood flood-opacity="0" result="BackgroundImageFix"/>
<feColorMatrix in="SourceAlpha" type="matrix" values="0 0 0 0 0 0 0 0 0 0 0 0 0 0 0 0 0 0 127 0" result="hardAlpha"/>
<feOffset dy="2"/>
<feGaussianBlur stdDeviation="2"/>
<feComposite in2="hardAlpha" operator="out"/>
<feColorMatrix type="matrix" values="0 0 0 0 0 0 0 0 0 0 0 0 0 0 0 0 0 0 0.15 0"/>
<feBlend mode="normal" in2="BackgroundImageFix" result="effect1_dropShadow_181_1511"/>
<feBlend mode="normal" in="SourceGraphic" in2="effect1_dropShadow_181_1511" result="shape"/>
</filter>
<filter id="filter1_d_181_1511" x="24.6943" y="32.3428" width="181.53" height="28.2369" filterUnits="userSpaceOnUse" color-interpolation-filters="sRGB">
<feFlood flood-opacity="0" result="BackgroundImageFix"/>
<feColorMatrix in="SourceAlpha" type="matrix" values="0 0 0 0 0 0 0 0 0 0 0 0 0 0 0 0 0 0 127 0" result="hardAlpha"/>
<feOffset dy="4"/>
<feGaussianBlur stdDeviation="2"/>
<feComposite in2="hardAlpha" operator="out"/>
<feColorMatrix type="matrix" values="0 0 0 0 0 0 0 0 0 0 0 0 0 0 0 0 0 0 0.25 0"/>
<feBlend mode="normal" in2="BackgroundImageFix" result="effect1_dropShadow_181_1511"/>
<feBlend mode="normal" in="SourceGraphic" in2="effect1_dropShadow_181_1511" result="shape"/>
</filter>
<filter id="filter2_d_181_1511" x="78.7566" y="64.004" width="128.561" height="16.592" filterUnits="userSpaceOnUse" color-interpolation-filters="sRGB">
<feFlood flood-opacity="0" result="BackgroundImageFix"/>
<feColorMatrix in="SourceAlpha" type="matrix" values="0 0 0 0 0 0 0 0 0 0 0 0 0 0 0 0 0 0 127 0" result="hardAlpha"/>
<feOffset dy="4"/>
<feGaussianBlur stdDeviation="2"/>
<feComposite in2="hardAlpha" operator="out"/>
<feColorMatrix type="matrix" values="0 0 0 0 0 0 0 0 0 0 0 0 0 0 0 0 0 0 0.25 0"/>
<feBlend mode="normal" in2="BackgroundImageFix" result="effect1_dropShadow_181_1511"/>
<feBlend mode="normal" in="SourceGraphic" in2="effect1_dropShadow_181_1511" result="shape"/>
</filter>
<linearGradient id="paint0_linear_181_1511" x1="-1.7355" y1="20.8968" x2="104.359" y2="127.42" gradientUnits="userSpaceOnUse">
<stop stop-color="#FF39FF"/>
<stop offset="1" stop-color="#0000D5"/>
</linearGradient>
<linearGradient id="paint1_linear_181_1511" x1="7.83767" y1="11.362" x2="113.932" y2="117.886" gradientUnits="userSpaceOnUse">
<stop stop-color="#FF39FF"/>
<stop offset="1" stop-color="#0000D5"/>
</linearGradient>
<linearGradient id="paint2_linear_181_1511" x1="3.99912" y1="53.7456" x2="111.865" y2="53.7456" gradientUnits="userSpaceOnUse">
<stop stop-color="#FF3900"/>
<stop offset="1" stop-color="#FEC200"/>
</linearGradient>
<linearGradient id="paint3_linear_181_1511" x1="5.3139" y1="52.2132" x2="108.964" y2="52.2132" gradientUnits="userSpaceOnUse">
<stop stop-color="#FF3900"/>
<stop offset="1" stop-color="#FEC200"/>
</linearGradient>
<linearGradient id="paint4_linear_181_1511" x1="3.5683" y1="32.2609" x2="15.4931" y2="44.234" gradientUnits="userSpaceOnUse">
<stop stop-color="#FF3900"/>
<stop offset="1" stop-color="#FEC200"/>
</linearGradient>
<linearGradient id="paint5_linear_181_1511" x1="17.6312" y1="26.1544" x2="22.4708" y2="31.0136" gradientUnits="userSpaceOnUse">
<stop stop-color="#FF3900"/>
<stop offset="1" stop-color="#FEC200"/>
</linearGradient>
<linearGradient id="paint6_linear_181_1511" x1="92.4225" y1="66.9275" x2="99.8745" y2="74.4096" gradientUnits="userSpaceOnUse">
<stop stop-color="#FF3900"/>
<stop offset="1" stop-color="#FEC200"/>
</linearGradient>
<clipPath id="clip0_181_1511">
<rect x="4" y="2" width="200" height="90" rx="24" fill="white"/>
</clipPath>
</defs>
</svg>
