<svg width="100" height="62" viewBox="0 0 100 62" fill="none" xmlns="http://www.w3.org/2000/svg">
<g clip-path="url(#clip0_108_1218)">
<path fill-rule="evenodd" clip-rule="evenodd" d="M92.5 6.2711e-07C87.5 1.0952e-06 34.563 -9.93974e-07 5 6.2711e-07C2.5 7.64197e-07 0 2.48 0 4.96V54.56C-2.89375e-07 59.52 2.5 62 7.5 62C35.3895 62 87.5 62 92.5 62C97.5 62 100 59.52 100 54.56V7.44C100 2.48 97.5 6.2711e-07 92.5 6.2711e-07Z" fill="#265697"/>
<path fill-rule="evenodd" clip-rule="evenodd" d="M93.466 31.3101C93.4701 45.7175 81.8249 57.3992 67.4561 57.403C53.087 57.4066 41.4369 45.7307 41.4331 31.3233V31.3101C41.4293 16.9029 53.0744 5.22063 67.4426 5.2168C81.8117 5.21297 93.4621 16.8894 93.466 31.2968V31.3101Z" fill="#DFAC16"/>
<path fill-rule="evenodd" clip-rule="evenodd" d="M32.3826 5.22328C18.099 5.31425 6.53369 16.9662 6.53369 31.3098C6.53369 45.7092 18.1891 57.396 32.5503 57.396C39.2904 57.396 45.4342 54.8204 50.0573 50.5991C50.057 50.5991 50.0564 50.5986 50.0553 50.598H50.0608C51.0075 49.733 51.8904 48.7997 52.702 47.8046H47.3718C46.6601 46.9425 46.0132 46.0443 45.4321 45.1175H54.6249C55.184 44.2204 55.6902 43.2889 56.1394 42.3241H43.9144C43.4977 41.4285 43.136 40.5125 42.8271 39.5834H57.2279C58.0959 36.9831 58.5668 34.2012 58.5668 31.3095C58.5668 29.3923 58.3595 27.523 57.9673 25.7233H42.0634C42.2604 24.7971 42.5091 23.882 42.8057 22.9829H57.2118C56.8896 22.026 56.5156 21.0936 56.0901 20.1898H43.9129C44.3522 19.2488 44.8499 18.3335 45.4057 17.4497H54.5917C53.9804 16.4731 53.3039 15.5401 52.5725 14.6563H47.4508C48.2427 13.7218 49.1145 12.8418 50.0608 12.0213C45.4374 7.79939 39.2919 5.22328 32.5503 5.22328C32.4942 5.22328 32.4387 5.22298 32.3826 5.22328Z" fill="#BF3126"/>
<path fill-rule="evenodd" clip-rule="evenodd" d="M41.9058 37.9515L42.2525 35.5906C42.0631 35.5906 41.7845 35.6719 41.5387 35.6719C40.5745 35.6719 40.4682 35.1578 40.5295 34.7777L41.3085 29.9605H42.774L43.1278 27.3491H41.746L42.0273 25.7251H39.2573C39.1962 25.7863 37.6221 34.8587 37.6221 35.9633C37.6221 37.5988 38.5379 38.3272 39.8292 38.3154C40.8405 38.3069 41.628 38.0263 41.9058 37.9515Z" fill="#FBFCF3"/>
<path fill-rule="evenodd" clip-rule="evenodd" d="M42.7837 33.4506C42.7837 37.3757 45.3676 38.3084 47.5689 38.3084C49.6008 38.3084 50.4948 37.853 50.4948 37.853L50.9829 35.1741C50.9829 35.1741 49.4372 35.8568 48.0413 35.8568C45.0669 35.8568 45.5878 33.6331 45.5878 33.6331H51.2172C51.2172 33.6331 51.5807 31.8334 51.5807 31.1C51.5807 29.2699 50.6722 27.04 47.6308 27.04C44.8455 27.0406 42.7837 30.0498 42.7837 33.4506ZM47.6414 29.5275C49.2047 29.5275 48.9163 31.289 48.9163 31.4315H45.8409C45.8409 31.2496 46.1316 29.5275 47.6414 29.5275Z" fill="#FBFCF3"/>
<path fill-rule="evenodd" clip-rule="evenodd" d="M65.1826 37.9505L65.6783 34.9225C65.6783 34.9225 64.3191 35.6058 63.3863 35.6058C61.4213 35.6058 60.6332 34.1013 60.6332 32.485C60.6332 29.2061 62.3239 27.4023 64.2061 27.4023C65.6175 27.4023 66.7503 28.1969 66.7503 28.1969L67.2025 25.2548C67.2025 25.2548 65.5227 24.5732 64.0827 24.5732C60.8849 24.5732 57.7739 27.3549 57.7739 32.5789C57.7739 36.043 59.4538 38.3309 62.7594 38.3309C63.694 38.3312 65.1826 37.9505 65.1826 37.9505Z" fill="#FBFCF3"/>
<path fill-rule="evenodd" clip-rule="evenodd" d="M26.6706 27.083C24.7711 27.083 23.315 27.6951 23.315 27.6951L22.9131 30.0878C22.9131 30.0878 24.1149 29.5982 25.9315 29.5982C26.963 29.5982 27.7176 29.7145 27.7176 30.555C27.7176 31.0655 27.6251 31.254 27.6251 31.254C27.6251 31.254 26.8115 31.1857 26.4348 31.1857C24.0391 31.1857 21.5225 32.2108 21.5225 35.3016C21.5225 37.7369 23.1735 38.2957 24.1968 38.2957C26.1512 38.2957 26.9936 37.0242 27.0385 37.0203L26.9472 38.0817H29.3863L30.4745 30.4325C30.4745 27.1875 27.6513 27.083 26.6706 27.083ZM27.264 33.311C27.3168 33.7783 26.9718 35.9684 25.304 35.9684C24.4437 35.9684 24.22 35.3095 24.22 34.9197C24.22 34.1595 24.6319 33.2468 26.6618 33.2468C27.1339 33.2474 27.1844 33.2981 27.264 33.311Z" fill="#FBFCF3"/>
<path fill-rule="evenodd" clip-rule="evenodd" d="M33.0668 38.2398C33.6908 38.2398 37.2577 38.3988 37.2577 34.7083C37.2577 31.2581 33.9559 31.9397 33.9559 30.5536C33.9559 29.8635 34.4941 29.6462 35.4778 29.6462C35.8683 29.6462 37.3707 29.7707 37.3707 29.7707L37.7202 27.3183C37.7202 27.3186 36.7477 27.1001 35.1645 27.1001C33.1153 27.1001 31.0352 27.9203 31.0352 30.7267C31.0352 33.9066 34.5035 33.5875 34.5035 34.9271C34.5035 35.8212 33.5345 35.8939 32.7879 35.8939C31.4956 35.8939 30.332 35.4494 30.3279 35.4706L29.9585 37.8983C30.0254 37.9189 30.7431 38.2398 33.0668 38.2398Z" fill="#FBFCF3"/>
<path fill-rule="evenodd" clip-rule="evenodd" d="M88.1277 24.8823L87.5302 28.5999C87.5302 28.5999 86.4876 27.1558 84.8553 27.1558C82.3172 27.1558 80.2017 30.2242 80.2017 33.7498C80.2017 36.0256 81.3301 38.2555 83.6368 38.2555C85.296 38.2555 86.216 37.0955 86.216 37.0955L86.0941 38.0862H88.7884L90.9045 24.8779L88.1277 24.8823ZM86.8414 32.1308C86.8414 33.5979 86.117 35.5575 84.6151 35.5575C83.6183 35.5575 83.1511 34.7184 83.1511 33.4015C83.1511 31.2482 84.1157 29.8273 85.3327 29.8273C86.3299 29.827 86.8414 30.5139 86.8414 32.1308Z" fill="#FBFCF3"/>
<path fill-rule="evenodd" clip-rule="evenodd" d="M11.6723 38.0975L13.3586 28.1257L13.6061 38.0975H15.5146L19.0748 28.1257L17.4978 38.0975H20.3336L22.5176 24.8716H18.1323L15.4013 32.9865L15.2592 24.8716H11.2169L9.00146 38.0975H11.6723Z" fill="#FBFCF3"/>
<path fill-rule="evenodd" clip-rule="evenodd" d="M54.351 38.1159C55.1573 33.5183 55.3067 29.7852 57.2308 30.4685C57.5676 28.6891 57.8927 28.0007 58.2603 27.2476C58.2603 27.2476 58.0879 27.2114 57.7262 27.2114C56.4856 27.2114 55.5666 28.9108 55.5666 28.9108L55.8135 27.3501H53.2343L51.5063 38.1159H54.351Z" fill="#FBFCF3"/>
<path fill-rule="evenodd" clip-rule="evenodd" d="M71.5741 27.083C69.6746 27.083 68.2185 27.6951 68.2185 27.6951L67.8169 30.0878C67.8169 30.0878 69.0187 29.5982 70.8353 29.5982C71.8668 29.5982 72.6209 29.7145 72.6209 30.555C72.6209 31.0655 72.529 31.254 72.529 31.254C72.529 31.254 71.7153 31.1857 71.3383 31.1857C68.9429 31.1857 66.4263 32.2108 66.4263 35.3016C66.4263 37.7369 68.077 38.2957 69.1003 38.2957C71.0547 38.2957 71.8971 37.0242 71.9417 37.0203L71.851 38.0817H74.2901L75.378 30.4325C75.3783 27.1875 72.5548 27.083 71.5741 27.083ZM72.1684 33.311C72.2212 33.7783 71.8759 35.9684 70.2076 35.9684C69.3472 35.9684 69.1241 35.3095 69.1241 34.9197C69.1241 34.1595 69.536 33.2468 71.5656 33.2468C72.0377 33.2474 72.0879 33.2981 72.1684 33.311Z" fill="#FBFCF3"/>
<path fill-rule="evenodd" clip-rule="evenodd" d="M77.6075 38.1159C78.4141 33.5183 78.5636 29.7852 80.4871 30.4685C80.8245 28.6891 81.1498 28.0007 81.5171 27.2476C81.5171 27.2476 81.3448 27.2114 80.983 27.2114C79.7425 27.2114 78.8234 28.9108 78.8234 28.9108L79.0704 27.3501H76.4912L74.7632 38.1159H77.6075Z" fill="#FBFCF3"/>
</g>
<defs>
<clipPath id="clip0_108_1218">
<rect width="100" height="62" fill="white"/>
</clipPath>
</defs>
</svg>
