<svg width="100" height="62" viewBox="0 0 100 62" fill="none" xmlns="http://www.w3.org/2000/svg">
<g clip-path="url(#clip0_108_1234)">
<path d="M100 5.58008H0V55.1801H100V5.58008Z" fill="#F6F6F6"/>
<path fill-rule="evenodd" clip-rule="evenodd" d="M92.5 6.2711e-07C87.5 1.0952e-06 34.563 -9.93974e-07 5 6.2711e-07C2.5 7.64197e-07 0 2.48 0 4.96V12.4H100C100 12.4 100 23.9146 100 7.44C100 2.48 97.5 6.2711e-07 92.5 6.2711e-07Z" fill="#265697"/>
<path fill-rule="evenodd" clip-rule="evenodd" d="M0 49.6001C0 49.6001 6.03983e-07 49.6001 0 54.5601C-2.89275e-07 59.5201 2.5 62.0001 7.5 62.0001C35.3895 62.0001 87.5 62.0001 92.5 62.0001C97.5 62.0001 100 59.5201 100 54.5601V49.6001H0Z" fill="#D97B16"/>
<path fill-rule="evenodd" clip-rule="evenodd" d="M69.7591 18.4648C68.3575 17.9318 66.1615 17.3599 63.4189 17.3599C56.429 17.3599 51.5052 20.928 51.4632 26.0416C51.4238 29.8217 54.9783 31.9303 57.6617 33.1888C60.4153 34.4783 61.3409 35.3007 61.3276 36.4521C61.3103 38.2155 59.1287 39.0211 57.0956 39.0211C54.2641 39.0211 52.7599 38.6224 50.4367 37.6402L49.5251 37.2221L48.5322 43.1112C50.1844 43.8455 53.2399 44.4818 56.4123 44.5148C63.8483 44.5148 68.6757 40.9876 68.7305 35.5269C68.7572 32.5341 66.8724 30.2567 62.7913 28.3792C60.3186 27.1623 58.8043 26.3502 58.8204 25.1179C58.8204 24.0244 60.1021 22.8551 62.8715 22.8551C65.1848 22.8187 66.8604 23.33 68.1662 23.863L68.8 24.1666L69.7591 18.4648Z" fill="#265697"/>
<path fill-rule="evenodd" clip-rule="evenodd" d="M87.8992 17.8423H82.4329C80.7397 17.8423 79.4724 18.3107 78.7288 20.0239L68.2227 44.1328H75.651C75.651 44.1328 76.8655 40.8912 77.1402 40.1795C77.952 40.1795 85.1684 40.1908 86.1999 40.1908C86.4117 41.1117 87.0606 44.1328 87.0606 44.1328H93.6247L87.8992 17.8423ZM79.1761 34.7986C79.7611 33.2829 81.9945 27.4446 81.9945 27.4446C81.9527 27.5146 82.5752 25.9215 82.9325 24.9337L83.4105 27.2019C83.4105 27.2019 84.7651 33.4815 85.0482 34.7983L79.1761 34.7986Z" fill="#265697"/>
<path fill-rule="evenodd" clip-rule="evenodd" d="M37.0312 44.1247L41.4541 17.8174H48.5282L44.1023 44.1247H37.0312Z" fill="#265697"/>
<path fill-rule="evenodd" clip-rule="evenodd" d="M31.0981 17.8364L24.1723 35.7761L23.4344 32.1303C22.1451 27.9277 18.1281 23.3744 13.6372 21.0948L19.97 44.1018L27.4545 44.0932L38.5914 17.8364H31.0981Z" fill="#265697"/>
<path fill-rule="evenodd" clip-rule="evenodd" d="M17.7472 17.8203H6.34028L6.25 18.3677C15.1245 20.5452 20.9967 25.8076 23.4342 32.1305L20.9538 20.0413C20.5256 18.3755 19.2837 17.8784 17.7472 17.8203Z" fill="#D97B16"/>
</g>
<defs>
<clipPath id="clip0_108_1234">
<rect width="100" height="62" fill="white"/>
</clipPath>
</defs>
</svg>
