<svg width="32" height="32" viewBox="0 0 32 32" fill="none" xmlns="http://www.w3.org/2000/svg">
<g clip-path="url(#clip0_356_548)">
<path d="M29.056 24.9381C28.5721 26.0561 27.9993 27.0852 27.3356 28.0313C26.4309 29.3212 25.6902 30.214 25.1194 30.7098C24.2345 31.5236 23.2863 31.9403 22.2711 31.9641C21.5422 31.9641 20.6632 31.7566 19.64 31.3359C18.6135 30.9172 17.6701 30.7098 16.8075 30.7098C15.9029 30.7098 14.9326 30.9172 13.8948 31.3359C12.8555 31.7566 12.0182 31.9759 11.378 31.9976C10.4044 32.0391 9.43394 31.6105 8.46528 30.7098C7.84703 30.1705 7.07372 29.2461 6.14733 27.9365C5.15338 26.538 4.33623 24.9164 3.69605 23.0675C3.01044 21.0706 2.66675 19.1368 2.66675 17.2646C2.66675 15.1201 3.13014 13.2705 4.05831 11.7205C4.78777 10.4755 5.7582 9.49342 6.97278 8.77245C8.18736 8.05149 9.49972 7.68409 10.913 7.66058C11.6863 7.66058 12.7004 7.89979 13.9606 8.3699C15.2173 8.84159 16.0241 9.08079 16.3779 9.08079C16.6424 9.08079 17.5388 8.80109 19.0583 8.24348C20.4953 7.72636 21.7081 7.51224 22.7017 7.59659C25.3939 7.81386 27.4166 8.87517 28.7617 10.7872C26.3539 12.2461 25.1628 14.2895 25.1865 16.9109C25.2082 18.9527 25.949 20.6518 27.4047 22.0009C28.0645 22.627 28.8012 23.111 29.6209 23.4547C29.4432 23.9702 29.2555 24.464 29.056 24.9381V24.9381ZM22.8814 0.640549C22.8814 2.24091 22.2967 3.73517 21.1313 5.11824C19.725 6.76244 18.0239 7.71253 16.1792 7.56261C16.1557 7.37062 16.1421 7.16855 16.1421 6.95621C16.1421 5.41986 16.8109 3.77566 17.9986 2.43131C18.5916 1.75064 19.3457 1.18467 20.2603 0.733187C21.1728 0.28844 22.036 0.0424849 22.8478 0.000366211C22.8715 0.21431 22.8814 0.428268 22.8814 0.640528V0.640549Z" fill="#01060B"/>
</g>
<defs>
<clipPath id="clip0_356_548">
<rect width="32" height="32" fill="white"/>
</clipPath>
</defs>
</svg>
