<svg width="20" height="20" viewBox="0 0 20 20" fill="none" xmlns="http://www.w3.org/2000/svg">
<path d="M11.8819 9.99996L18.9268 2.95499C19.054 2.83221 19.1554 2.68534 19.2251 2.52296C19.2949 2.36057 19.3316 2.18592 19.3331 2.00919C19.3347 1.83246 19.301 1.65719 19.2341 1.49362C19.1671 1.33005 19.0683 1.18144 18.9433 1.05647C18.8184 0.931495 18.6698 0.832664 18.5062 0.76574C18.3426 0.698817 18.1673 0.665141 17.9906 0.666676C17.8139 0.668212 17.6392 0.704929 17.4768 0.774685C17.3145 0.844442 17.1676 0.94584 17.0448 1.07296L9.99984 8.11793L2.95487 1.07296C2.70384 0.830512 2.36763 0.696354 2.01865 0.699387C1.66966 0.70242 1.33583 0.8424 1.08906 1.08918C0.842277 1.33595 0.702298 1.66979 0.699265 2.01877C0.696232 2.36775 0.83039 2.70396 1.07284 2.95499L8.11781 9.99996L1.07284 17.0449C0.945718 17.1677 0.84432 17.3146 0.774563 17.477C0.704807 17.6393 0.66809 17.814 0.666554 17.9907C0.665018 18.1675 0.698695 18.3427 0.765618 18.5063C0.832542 18.6699 0.931373 18.8185 1.05634 18.9435C1.18131 19.0684 1.32992 19.1673 1.4935 19.2342C1.65707 19.3011 1.83234 19.3348 2.00907 19.3332C2.1858 19.3317 2.36045 19.295 2.52284 19.2252C2.68522 19.1555 2.83209 19.0541 2.95487 18.927L9.99984 11.882L17.0448 18.927C17.2958 19.1694 17.632 19.3036 17.981 19.3005C18.33 19.2975 18.6638 19.1575 18.9106 18.9107C19.1574 18.664 19.2974 18.3301 19.3004 17.9811C19.3034 17.6322 19.1693 17.296 18.9268 17.0449L11.8819 9.99996Z" fill="#01060B"/>
</svg>
