<svg width="30" height="30" viewBox="0 0 30 30" fill="none" xmlns="http://www.w3.org/2000/svg">
<mask id="mask0_277_1017" style="mask-type:alpha" maskUnits="userSpaceOnUse" x="0" y="0" width="30" height="30">
<rect width="30" height="30" fill="#D9D9D9"/>
</mask>
<g mask="url(#mask0_277_1017)">
<path d="M15 26.25L13.1875 24.625C11.0833 22.7292 9.34375 21.0938 7.96875 19.7188C6.59375 18.3437 5.5 17.1094 4.6875 16.0156C3.875 14.9219 3.30729 13.9167 2.98438 13C2.66146 12.0833 2.5 11.1458 2.5 10.1875C2.5 8.22917 3.15625 6.59375 4.46875 5.28125C5.78125 3.96875 7.41667 3.3125 9.375 3.3125C10.4583 3.3125 11.4896 3.54167 12.4687 4C13.4479 4.45833 14.2917 5.10417 15 5.9375C15.7083 5.10417 16.5521 4.45833 17.5313 4C18.5104 3.54167 19.5417 3.3125 20.625 3.3125C22.5833 3.3125 24.2188 3.96875 25.5313 5.28125C26.8438 6.59375 27.5 8.22917 27.5 10.1875C27.5 11.1458 27.3385 12.0833 27.0156 13C26.6927 13.9167 26.125 14.9219 25.3125 16.0156C24.5 17.1094 23.4063 18.3437 22.0312 19.7188C20.6562 21.0938 18.9167 22.7292 16.8125 24.625L15 26.25ZM15 22.875C17 21.0833 18.6458 19.5469 19.9375 18.2656C21.2292 16.9844 22.25 15.8698 23 14.9219C23.75 13.974 24.2708 13.1302 24.5625 12.3906C24.8542 11.651 25 10.9167 25 10.1875C25 8.9375 24.5833 7.89583 23.75 7.0625C22.9167 6.22917 21.875 5.8125 20.625 5.8125C19.6458 5.8125 18.7396 6.08854 17.9062 6.64063C17.0729 7.19271 16.5 7.89583 16.1875 8.75H13.8125C13.5 7.89583 12.9271 7.19271 12.0938 6.64063C11.2604 6.08854 10.3542 5.8125 9.375 5.8125C8.125 5.8125 7.08333 6.22917 6.25 7.0625C5.41667 7.89583 5 8.9375 5 10.1875C5 10.9167 5.14583 11.651 5.4375 12.3906C5.72917 13.1302 6.25 13.974 7 14.9219C7.75 15.8698 8.77083 16.9844 10.0625 18.2656C11.3542 19.5469 13 21.0833 15 22.875Z" fill="url(#paint0_linear_277_1017)"/>
</g>
<defs>
<linearGradient id="paint0_linear_277_1017" x1="2.5" y1="26.25" x2="27.9349" y2="25.7572" gradientUnits="userSpaceOnUse">
<stop stop-color="#0B2354"/>
<stop offset="1" stop-color="#043392"/>
</linearGradient>
</defs>
</svg>
